<svg xmlns="http://www.w3.org/2000/svg" width="1200" height="640" viewBox="0 0 1200 640" role="img" aria-label="Frequency console preview">
  <defs>
    <linearGradient id="bg" x1="0" y1="0" x2="1" y2="1">
      <stop offset="0%" stop-color="#0b1020"/>
      <stop offset="60%" stop-color="#0b0f18"/>
      <stop offset="100%" stop-color="#111826"/>
    </linearGradient>
    <radialGradient id="glow" cx="20%" cy="20%" r="60%">
      <stop offset="0%" stop-color="#60a5fa" stop-opacity="0.45"/>
      <stop offset="100%" stop-color="#60a5fa" stop-opacity="0"/>
    </radialGradient>
    <radialGradient id="glow2" cx="80%" cy="80%" r="60%">
      <stop offset="0%" stop-color="#fbbf24" stop-opacity="0.35"/>
      <stop offset="100%" stop-color="#fbbf24" stop-opacity="0"/>
    </radialGradient>
  </defs>
  <rect width="1200" height="640" fill="url(#bg)"/>
  <rect width="1200" height="640" fill="url(#glow)"/>
  <rect width="1200" height="640" fill="url(#glow2)"/>

  <rect x="60" y="60" width="1080" height="520" rx="28" fill="#0f172a" stroke="#1e293b" stroke-width="2"/>

  <rect x="90" y="120" width="560" height="410" rx="22" fill="#111827" stroke="#1f2937"/>
  <rect x="680" y="120" width="430" height="190" rx="22" fill="#111827" stroke="#1f2937"/>
  <rect x="680" y="340" width="430" height="190" rx="22" fill="#111827" stroke="#1f2937"/>

  <rect x="115" y="150" width="510" height="60" rx="12" fill="#0b1324" stroke="#1f2937"/>
  <rect x="115" y="230" width="510" height="60" rx="12" fill="#0b1324" stroke="#1f2937"/>
  <rect x="115" y="310" width="510" height="60" rx="12" fill="#0b1324" stroke="#1f2937"/>
  <rect x="115" y="390" width="510" height="60" rx="12" fill="#0b1324" stroke="#1f2937"/>

  <rect x="705" y="150" width="380" height="120" rx="14" fill="#0b1324" stroke="#1f2937"/>
  <rect x="705" y="370" width="380" height="120" rx="14" fill="#0b1324" stroke="#1f2937"/>

  <circle cx="110" cy="88" r="6" fill="#f87171"/>
  <circle cx="130" cy="88" r="6" fill="#fbbf24"/>
  <circle cx="150" cy="88" r="6" fill="#34d399"/>

  <text x="180" y="92" fill="#e5e7eb" font-family="Arial, sans-serif" font-size="16" letter-spacing="2">FREQUENCY · RADIOVERSE CONSOLE</text>
  <text x="115" y="142" fill="#94a3b8" font-family="Arial, sans-serif" font-size="12" letter-spacing="1">Regional Directory</text>
  <text x="705" y="142" fill="#94a3b8" font-family="Arial, sans-serif" font-size="12" letter-spacing="1">Local Engine</text>
  <text x="705" y="362" fill="#94a3b8" font-family="Arial, sans-serif" font-size="12" letter-spacing="1">Stream Monitor</text>

  <text x="135" y="186" fill="#e2e8f0" font-family="Arial, sans-serif" font-size="14">Focus Room · 98.7 MHz</text>
  <text x="135" y="266" fill="#e2e8f0" font-family="Arial, sans-serif" font-size="14">Rain Cave · 92.5 MHz</text>
  <text x="135" y="346" fill="#e2e8f0" font-family="Arial, sans-serif" font-size="14">Arcade Night · 101.8 MHz</text>
  <text x="135" y="426" fill="#e2e8f0" font-family="Arial, sans-serif" font-size="14">Sleep Ship · 106.5 MHz</text>
</svg>
